<svg width="64" height="64" viewBox="0 0 64 64" fill="none" xmlns="http://www.w3.org/2000/svg">
<path fill-rule="evenodd" clip-rule="evenodd" d="M6.92529 56.3936H63.3189V63.3191H6.92529V56.3936Z" fill="white"/>
<path fill-rule="evenodd" clip-rule="evenodd" d="M62.8244 6.4308V0.494629H0.494629V62.8244H6.4308V6.4308H62.8244Z" fill="#A5A7A9" stroke="#1E2329" stroke-width="0.989362"/>
<path fill-rule="evenodd" clip-rule="evenodd" d="M5.93604 56.3936H8.90412V57.3829H5.93604V56.3936ZM11.8722 56.3936H15.8297V57.3829H11.8722V56.3936ZM18.7977 56.3936H22.7552V57.3829H18.7977V56.3936ZM25.7233 56.3936H29.6807V57.3829H25.7233V56.3936ZM32.6488 56.3936H36.6062V57.3829H32.6488V56.3936ZM39.5743 56.3936H43.5318V57.3829H39.5743V56.3936ZM46.4999 56.3936H50.4573V57.3829H46.4999V56.3936ZM53.4254 56.3936H57.3828V57.3829H53.4254V56.3936ZM53.4254 62.3297H57.3828V63.3191H53.4254V62.3297ZM46.4999 62.3297H50.4573V63.3191H46.4999V62.3297ZM39.5743 62.3297H43.5318V63.3191H39.5743V62.3297ZM32.6488 62.3297H36.6062V63.3191H32.6488V62.3297ZM25.7233 62.3297H29.6807V63.3191H25.7233V62.3297ZM18.7977 62.3297H22.7552V63.3191H18.7977V62.3297ZM11.8722 62.3297H15.8297V63.3191H11.8722V62.3297ZM5.93604 62.3297H8.90412V63.3191H5.93604V62.3297ZM60.3509 56.3936H63.319V58.3723H62.3297V57.3829H60.3509V56.3936ZM60.3509 63.3191V62.3297H62.3297V61.3404H63.319V63.3191H60.3509Z" fill="#1E2329"/>
</svg>
